<svg xmlns="http://www.w3.org/2000/svg" width="800" height="400" viewBox="0 0 800 400">
  <rect width="800" height="400" fill="#0d1117"/>
  <rect x="0" y="0" width="800" height="32" fill="#161b22"/>
  <circle cx="16" cy="16" r="5" fill="#ff5f57"/>
  <circle cx="36" cy="16" r="5" fill="#febc2e"/>
  <circle cx="56" cy="16" r="5" fill="#28c840"/>
  <text x="190" y="20" font-family="monospace" font-size="12" fill="#8b949e">Kibana — Suricata EVE Alert Dashboard</text>
  <!-- Alert table header -->
  <rect x="20" y="45" width="760" height="24" fill="#161b22" rx="2"/>
  <text x="28" y="61" font-family="monospace" font-size="10" fill="#8b949e">TIMESTAMP</text>
  <text x="178" y="61" font-family="monospace" font-size="10" fill="#8b949e">SEVERITY</text>
  <text x="258" y="61" font-family="monospace" font-size="10" fill="#8b949e">SRC IP</text>
  <text x="378" y="61" font-family="monospace" font-size="10" fill="#8b949e">DST IP</text>
  <text x="480" y="61" font-family="monospace" font-size="10" fill="#8b949e">SIGNATURE</text>
  <!-- Row 1 - high -->
  <rect x="20" y="70" width="760" height="22" fill="#2d1b1b" rx="1"/>
  <text x="28" y="85" font-family="monospace" font-size="10" fill="#e6edf3">2024-01-15 03:14:52</text>
  <rect x="175" y="73" width="60" height="16" fill="#7f1d1d" rx="3"/>
  <text x="205" y="85" text-anchor="middle" font-family="monospace" font-size="10" fill="#ff7b72">HIGH</text>
  <text x="258" y="85" font-family="monospace" font-size="10" fill="#e6edf3">10.0.1.45</text>
  <text x="378" y="85" font-family="monospace" font-size="10" fill="#e6edf3">185.220.101.47</text>
  <text x="480" y="85" font-family="monospace" font-size="10" fill="#ff7b72">ET MALWARE Possible C2 Beacon</text>
  <!-- Row 2 - medium -->
  <rect x="20" y="93" width="760" height="22" fill="#1c2128" rx="1"/>
  <text x="28" y="108" font-family="monospace" font-size="10" fill="#e6edf3">2024-01-15 02:55:11</text>
  <rect x="175" y="96" width="72" height="16" fill="#451a03" rx="3"/>
  <text x="211" y="108" text-anchor="middle" font-family="monospace" font-size="10" fill="#f59e0b">MEDIUM</text>
  <text x="258" y="108" font-family="monospace" font-size="10" fill="#e6edf3">10.0.1.12</text>
  <text x="378" y="108" font-family="monospace" font-size="10" fill="#e6edf3">8.8.8.8</text>
  <text x="480" y="108" font-family="monospace" font-size="10" fill="#f59e0b">ET DNS Query for Known DGA Domain</text>
  <!-- Row 3 - medium -->
  <rect x="20" y="116" width="760" height="22" fill="#1c2128" rx="1"/>
  <text x="28" y="131" font-family="monospace" font-size="10" fill="#e6edf3">2024-01-15 01:32:44</text>
  <rect x="175" y="119" width="72" height="16" fill="#451a03" rx="3"/>
  <text x="211" y="131" text-anchor="middle" font-family="monospace" font-size="10" fill="#f59e0b">MEDIUM</text>
  <text x="258" y="131" font-family="monospace" font-size="10" fill="#e6edf3">10.0.2.88</text>
  <text x="378" y="131" font-family="monospace" font-size="10" fill="#e6edf3">10.0.1.1</text>
  <text x="480" y="131" font-family="monospace" font-size="10" fill="#f59e0b">ET SCAN Nmap Scripting Engine User-Agent</text>
  <!-- Row 4 - low -->
  <rect x="20" y="139" width="760" height="22" fill="#1c2128" rx="1"/>
  <text x="28" y="154" font-family="monospace" font-size="10" fill="#e6edf3">2024-01-14 23:01:03</text>
  <rect x="175" y="142" width="48" height="16" fill="#1f3a5a" rx="3"/>
  <text x="199" y="154" text-anchor="middle" font-family="monospace" font-size="10" fill="#79c0ff">LOW</text>
  <text x="258" y="154" font-family="monospace" font-size="10" fill="#e6edf3">10.0.1.77</text>
  <text x="378" y="154" font-family="monospace" font-size="10" fill="#e6edf3">192.168.0.1</text>
  <text x="480" y="154" font-family="monospace" font-size="10" fill="#79c0ff">ET INFO SMB Negotiation Request</text>
  <!-- Stats bar -->
  <rect x="20" y="200" width="760" height="2" fill="#30363d"/>
  <text x="20" y="225" font-family="monospace" font-size="11" fill="#8b949e">Last 24 hours</text>
  <text x="20" y="260" font-family="sans-serif" font-size="28" font-weight="bold" fill="#ff7b72">14</text>
  <text x="20" y="278" font-family="monospace" font-size="10" fill="#8b949e">High</text>
  <text x="120" y="260" font-family="sans-serif" font-size="28" font-weight="bold" fill="#f59e0b">63</text>
  <text x="120" y="278" font-family="monospace" font-size="10" fill="#8b949e">Medium</text>
  <text x="230" y="260" font-family="sans-serif" font-size="28" font-weight="bold" fill="#79c0ff">241</text>
  <text x="230" y="278" font-family="monospace" font-size="10" fill="#8b949e">Low</text>
  <text x="360" y="260" font-family="sans-serif" font-size="28" font-weight="bold" fill="#56d364">318</text>
  <text x="360" y="278" font-family="monospace" font-size="10" fill="#8b949e">Total</text>
</svg>
