<svg xmlns="http://www.w3.org/2000/svg" width="800" height="420" viewBox="0 0 800 420">
  <rect width="800" height="420" fill="#0d1117"/>
  <text x="270" y="30" font-family="sans-serif" font-size="14" font-weight="bold" fill="#e6edf3">Confusion Matrix — Top 5 Device Categories</text>
  <!-- Labels -->
  <text x="200" y="60" text-anchor="middle" font-family="monospace" font-size="9" fill="#8b949e">Smart TV</text>
  <text x="290" y="60" text-anchor="middle" font-family="monospace" font-size="9" fill="#8b949e">IP Camera</text>
  <text x="380" y="60" text-anchor="middle" font-family="monospace" font-size="9" fill="#8b949e">Spkr</text>
  <text x="470" y="60" text-anchor="middle" font-family="monospace" font-size="9" fill="#8b949e">Router</text>
  <text x="560" y="60" text-anchor="middle" font-family="monospace" font-size="9" fill="#8b949e">Printer</text>
  <text x="120" y="105" font-family="monospace" font-size="9" fill="#8b949e" transform="rotate(-45,120,105)">Smart TV</text>
  <text x="120" y="190" font-family="monospace" font-size="9" fill="#8b949e" transform="rotate(-45,120,190)">IP Camera</text>
  <text x="120" y="280" font-family="monospace" font-size="9" fill="#8b949e" transform="rotate(-45,120,280)">Speaker</text>
  <text x="120" y="360" font-family="monospace" font-size="9" fill="#8b949e" transform="rotate(-45,120,360)">Router</text>
  <!-- Row 1 -->
  <rect x="155" y="70" width="90" height="80" fill="#0d4429" rx="2"/>
  <text x="200" y="115" text-anchor="middle" font-family="monospace" font-size="18" font-weight="bold" fill="#56d364">97</text>
  <rect x="245" y="70" width="90" height="80" fill="#0d1117" rx="2" stroke="#21262d" stroke-width="1"/>
  <text x="290" y="115" text-anchor="middle" font-family="monospace" font-size="18" fill="#30363d">1</text>
  <rect x="335" y="70" width="90" height="80" fill="#0d1117" rx="2" stroke="#21262d" stroke-width="1"/>
  <text x="380" y="115" text-anchor="middle" font-family="monospace" font-size="18" fill="#30363d">2</text>
  <rect x="425" y="70" width="90" height="80" fill="#0d1117" rx="2" stroke="#21262d" stroke-width="1"/>
  <text x="470" y="115" text-anchor="middle" font-family="monospace" font-size="18" fill="#30363d">0</text>
  <rect x="515" y="70" width="90" height="80" fill="#0d1117" rx="2" stroke="#21262d" stroke-width="1"/>
  <text x="560" y="115" text-anchor="middle" font-family="monospace" font-size="18" fill="#30363d">0</text>
  <!-- Row 2 -->
  <rect x="155" y="155" width="90" height="80" fill="#0d1117" rx="2" stroke="#21262d" stroke-width="1"/>
  <text x="200" y="200" text-anchor="middle" font-family="monospace" font-size="18" fill="#30363d">2</text>
  <rect x="245" y="155" width="90" height="80" fill="#0d4429" rx="2"/>
  <text x="290" y="200" text-anchor="middle" font-family="monospace" font-size="18" font-weight="bold" fill="#56d364">94</text>
  <rect x="335" y="155" width="90" height="80" fill="#1a1507" rx="2"/>
  <text x="380" y="200" text-anchor="middle" font-family="monospace" font-size="18" fill="#f59e0b">4</text>
  <rect x="425" y="155" width="90" height="80" fill="#0d1117" rx="2" stroke="#21262d" stroke-width="1"/>
  <text x="470" y="200" text-anchor="middle" font-family="monospace" font-size="18" fill="#30363d">0</text>
  <rect x="515" y="155" width="90" height="80" fill="#0d1117" rx="2" stroke="#21262d" stroke-width="1"/>
  <text x="560" y="200" text-anchor="middle" font-family="monospace" font-size="18" fill="#30363d">0</text>
  <!-- Row 3 -->
  <rect x="155" y="240" width="90" height="80" fill="#0d1117" rx="2" stroke="#21262d" stroke-width="1"/>
  <text x="200" y="285" text-anchor="middle" font-family="monospace" font-size="18" fill="#30363d">3</text>
  <rect x="245" y="240" width="90" height="80" fill="#1a1507" rx="2"/>
  <text x="290" y="285" text-anchor="middle" font-family="monospace" font-size="18" fill="#f59e0b">5</text>
  <rect x="335" y="240" width="90" height="80" fill="#0d4429" rx="2"/>
  <text x="380" y="285" text-anchor="middle" font-family="monospace" font-size="18" font-weight="bold" fill="#56d364">91</text>
  <rect x="425" y="240" width="90" height="80" fill="#0d1117" rx="2" stroke="#21262d" stroke-width="1"/>
  <text x="470" y="285" text-anchor="middle" font-family="monospace" font-size="18" fill="#30363d">1</text>
  <rect x="515" y="240" width="90" height="80" fill="#0d1117" rx="2" stroke="#21262d" stroke-width="1"/>
  <text x="560" y="285" text-anchor="middle" font-family="monospace" font-size="18" fill="#30363d">0</text>
  <text x="680" y="100" font-family="monospace" font-size="10" fill="#8b949e">diagonal =</text>
  <text x="680" y="115" font-family="monospace" font-size="10" fill="#8b949e">correct</text>
  <text x="680" y="135" font-family="monospace" font-size="10" fill="#8b949e">classification</text>
  <rect x="660" y="80" width="12" height="12" fill="#0d4429" rx="1"/>
  <rect x="660" y="150" width="12" height="12" fill="#1a1507" rx="1"/>
  <text x="678" y="160" font-family="monospace" font-size="10" fill="#8b949e">misclassified</text>
  <rect x="660" y="170" width="12" height="12" fill="#0d1117" stroke="#21262d" stroke-width="1" rx="1"/>
  <text x="678" y="180" font-family="monospace" font-size="10" fill="#8b949e">zero</text>
</svg>
